<svg width="191" height="17" viewBox="0 0 191 17" fill="none" xmlns="http://www.w3.org/2000/svg">
<path d="M10.5488 16H7.9121L2.77929 7.58009V16H0.142577V3.20314H2.77929L7.92089 11.6406V3.20314H10.5488V16ZM20.5508 10.4541H15.4883V13.8818H21.4297V16H12.8516V3.20314H21.4121V5.33888H15.4883V8.38868H20.5508V10.4541ZM16.3672 1.25197C16.3672 1.56251 16.2529 1.82618 16.0244 2.04298C15.7959 2.25392 15.5029 2.35939 15.1455 2.35939C14.7822 2.35939 14.4892 2.25099 14.2666 2.03419C14.0439 1.81739 13.9326 1.55665 13.9326 1.25197C13.9326 0.947278 14.0439 0.686536 14.2666 0.46974C14.4892 0.247084 14.7822 0.135756 15.1455 0.135756C15.5088 0.135756 15.8017 0.247084 16.0244 0.46974C16.2529 0.686536 16.3672 0.947278 16.3672 1.25197ZM18.2129 1.25197C18.2129 0.93556 18.3301 0.671888 18.5644 0.460951C18.8047 0.244154 19.0947 0.135756 19.4346 0.135756C19.7803 0.135756 20.0674 0.244154 20.2959 0.460951C20.5303 0.677747 20.6474 0.941419 20.6474 1.25197C20.6474 1.55665 20.5361 1.82032 20.3135 2.04298C20.0908 2.25978 19.7978 2.36818 19.4346 2.36818C19.0713 2.36818 18.7754 2.25978 18.5469 2.04298C18.3242 1.82032 18.2129 1.55665 18.2129 1.25197ZM27.7138 11.3154H25.6133V16H22.9765V3.20314H27.7314C29.2431 3.20314 30.4092 3.54005 31.2295 4.21388C32.0498 4.8877 32.4599 5.83985 32.4599 7.07032C32.4599 7.94337 32.2695 8.67286 31.8886 9.25879C31.5136 9.83887 30.9424 10.3018 30.1748 10.6475L32.9433 15.877V16H30.1133L27.7138 11.3154ZM25.6133 9.17969H27.7402C28.4023 9.17969 28.915 9.0127 29.2783 8.67872C29.6416 8.33887 29.8232 7.87305 29.8232 7.28126C29.8232 6.67774 29.6504 6.20313 29.3047 5.85743C28.9648 5.51173 28.4404 5.33888 27.7314 5.33888H25.6133V9.17969ZM34.4726 16V3.20314H38.4101C39.5351 3.20314 40.54 3.45802 41.4248 3.96778C42.3154 4.47169 43.0097 5.19239 43.5078 6.12989C44.0058 7.06153 44.2548 8.12208 44.2548 9.31153V9.9004C44.2548 11.0898 44.0087 12.1475 43.5166 13.0732C43.0302 13.999 42.3418 14.7168 41.4511 15.2266C40.5605 15.7363 39.5556 15.9941 38.4365 16H34.4726ZM37.1093 5.33888V13.8818H38.3838C39.415 13.8818 40.2031 13.5449 40.748 12.8711C41.2929 12.1973 41.5713 11.2334 41.583 9.9795V9.30274C41.583 8.00196 41.3134 7.01759 40.7744 6.34962C40.2353 5.67579 39.4472 5.33888 38.4101 5.33888H37.1093ZM52.8154 12.6426C52.8154 12.1445 52.6396 11.7637 52.288 11.5C51.9365 11.2305 51.3037 10.9492 50.3896 10.6563C49.4755 10.3574 48.7519 10.0645 48.2187 9.77735C46.7656 8.99219 46.039 7.93458 46.039 6.6045C46.039 5.91309 46.2324 5.29786 46.6191 4.7588C47.0117 4.21388 47.5712 3.78907 48.2978 3.48439C49.0302 3.1797 49.8505 3.02735 50.7587 3.02735C51.6728 3.02735 52.4873 3.19435 53.2021 3.52833C53.9169 3.85646 54.4707 4.32228 54.8632 4.92579C55.2617 5.52931 55.4609 6.21485 55.4609 6.98243H52.8242C52.8242 6.39649 52.6396 5.94239 52.2705 5.62013C51.9013 5.292 51.3828 5.12794 50.7148 5.12794C50.0703 5.12794 49.5693 5.26563 49.2119 5.54102C48.8545 5.81056 48.6757 6.16798 48.6757 6.61329C48.6757 7.0293 48.8837 7.37794 49.2998 7.65919C49.7216 7.94044 50.3398 8.20411 51.1543 8.4502C52.6543 8.90137 53.747 9.46094 54.4326 10.1289C55.1181 10.7969 55.4609 11.6289 55.4609 12.625C55.4609 13.7324 55.0419 14.6025 54.2041 15.2354C53.3662 15.8623 52.2382 16.1758 50.8203 16.1758C49.8359 16.1758 48.9394 15.9971 48.1308 15.6396C47.3222 15.2764 46.7041 14.7813 46.2763 14.1543C45.8545 13.5273 45.6435 12.8008 45.6435 11.9746H48.289C48.289 13.3867 49.1328 14.0928 50.8203 14.0928C51.4472 14.0928 51.9365 13.9668 52.288 13.7148C52.6396 13.457 52.8154 13.0996 52.8154 12.6426ZM61.7363 16V3.20314H65.6738C66.7988 3.20314 67.8037 3.45802 68.6884 3.96778C69.579 4.47169 70.2734 5.19239 70.7714 6.12989C71.2695 7.06153 71.5185 8.12208 71.5185 9.31153V9.9004C71.5185 11.0898 71.2724 12.1475 70.7802 13.0732C70.2939 13.999 69.6054 14.7168 68.7148 15.2266C67.8242 15.7363 66.8193 15.9941 65.7001 16H61.7363ZM64.373 5.33888V13.8818H65.6474C66.6787 13.8818 67.4667 13.5449 68.0117 12.8711C68.5566 12.1973 68.8349 11.2334 68.8466 9.9795V9.30274C68.8466 8.00196 68.5771 7.01759 68.038 6.34962C67.499 5.67579 66.7109 5.33888 65.6738 5.33888H64.373ZM81.1425 10.4541H76.08V13.8818H82.0214V16H73.4433V3.20314H82.0038V5.33888H76.08V8.38868H81.1425V10.4541ZM90.204 12.6426C90.204 12.1445 90.0282 11.7637 89.6767 11.5C89.3251 11.2305 88.6923 10.9492 87.7782 10.6563C86.8642 10.3574 86.1406 10.0645 85.6074 9.77735C84.1542 8.99219 83.4277 7.93458 83.4277 6.6045C83.4277 5.91309 83.621 5.29786 84.0077 4.7588C84.4003 4.21388 84.9599 3.78907 85.6865 3.48439C86.4189 3.1797 87.2392 3.02735 88.1474 3.02735C89.0614 3.02735 89.8759 3.19435 90.5907 3.52833C91.3056 3.85646 91.8593 4.32228 92.2519 4.92579C92.6503 5.52931 92.8495 6.21485 92.8495 6.98243H90.2128C90.2128 6.39649 90.0282 5.94239 89.6591 5.62013C89.29 5.292 88.7714 5.12794 88.1034 5.12794C87.4589 5.12794 86.9579 5.26563 86.6005 5.54102C86.2431 5.81056 86.0644 6.16798 86.0644 6.61329C86.0644 7.0293 86.2724 7.37794 86.6884 7.65919C87.1103 7.94044 87.7284 8.20411 88.5429 8.4502C90.0429 8.90137 91.1357 9.46094 91.8212 10.1289C92.5068 10.7969 92.8495 11.6289 92.8495 12.625C92.8495 13.7324 92.4306 14.6025 91.5927 15.2354C90.7548 15.8623 89.6269 16.1758 88.2089 16.1758C87.2245 16.1758 86.3281 15.9971 85.5195 15.6396C84.7109 15.2764 84.0927 14.7813 83.665 14.1543C83.2431 13.5273 83.0322 12.8008 83.0322 11.9746H85.6777C85.6777 13.3867 86.5214 14.0928 88.2089 14.0928C88.8359 14.0928 89.3251 13.9668 89.6767 13.7148C90.0282 13.457 90.204 13.0996 90.204 12.6426ZM97.4462 16H94.8095V3.20314H97.4462V16ZM110.023 14.3828C109.549 14.9512 108.878 15.3936 108.011 15.71C107.143 16.0205 106.183 16.1758 105.128 16.1758C104.02 16.1758 103.048 15.9355 102.21 15.4551C101.378 14.9688 100.733 14.2656 100.276 13.3457C99.8251 12.4258 99.5937 11.3447 99.5819 10.1025V9.23243C99.5819 7.95508 99.7958 6.85059 100.224 5.91895C100.657 4.98145 101.278 4.26661 102.087 3.77442C102.901 3.27638 103.853 3.02735 104.943 3.02735C106.461 3.02735 107.647 3.39064 108.503 4.1172C109.358 4.8379 109.865 5.88966 110.023 7.27247H107.457C107.34 6.54005 107.079 6.00391 106.675 5.66407C106.276 5.32423 105.725 5.15431 105.022 5.15431C104.126 5.15431 103.443 5.49122 102.975 6.16505C102.506 6.83887 102.268 7.84083 102.263 9.1709V9.98829C102.263 11.3301 102.517 12.3438 103.027 13.0293C103.537 13.7148 104.284 14.0576 105.268 14.0576C106.259 14.0576 106.965 13.8467 107.387 13.4248V11.2188H104.987V9.27637H110.023V14.3828ZM122.574 16H119.937L114.805 7.58009V16H112.168V3.20314H114.805L119.946 11.6406V3.20314H122.574V16ZM135.995 12.6426C135.995 12.1445 135.819 11.7637 135.468 11.5C135.116 11.2305 134.483 10.9492 133.569 10.6563C132.655 10.3574 131.932 10.0645 131.398 9.77735C129.945 8.99219 129.219 7.93458 129.219 6.6045C129.219 5.91309 129.412 5.29786 129.799 4.7588C130.191 4.21388 130.751 3.78907 131.477 3.48439C132.21 3.1797 133.03 3.02735 133.938 3.02735C134.852 3.02735 135.667 3.19435 136.382 3.52833C137.097 3.85646 137.65 4.32228 138.043 4.92579C138.441 5.52931 138.641 6.21485 138.641 6.98243H136.004C136.004 6.39649 135.819 5.94239 135.45 5.62013C135.081 5.292 134.562 5.12794 133.894 5.12794C133.25 5.12794 132.749 5.26563 132.391 5.54102C132.034 5.81056 131.855 6.16798 131.855 6.61329C131.855 7.0293 132.063 7.37794 132.479 7.65919C132.901 7.94044 133.519 8.20411 134.334 8.4502C135.834 8.90137 136.927 9.46094 137.612 10.1289C138.298 10.7969 138.641 11.6289 138.641 12.625C138.641 13.7324 138.222 14.6025 137.384 15.2354C136.546 15.8623 135.418 16.1758 134 16.1758C133.016 16.1758 132.119 15.9971 131.31 15.6396C130.502 15.2764 129.884 14.7813 129.456 14.1543C129.034 13.5273 128.823 12.8008 128.823 11.9746H131.469C131.469 13.3867 132.312 14.0928 134 14.0928C134.627 14.0928 135.116 13.9668 135.468 13.7148C135.819 13.457 135.995 13.0996 135.995 12.6426ZM150.066 5.33888H146.146V16H143.51V5.33888H139.642V3.20314H150.066V5.33888ZM161.264 3.20314V11.6318C161.264 13.0322 160.824 14.1397 159.945 14.9541C159.072 15.7686 157.877 16.1758 156.359 16.1758C154.865 16.1758 153.679 15.7803 152.8 14.9893C151.921 14.1982 151.473 13.1113 151.455 11.7285V3.20314H154.092V11.6494C154.092 12.4873 154.291 13.0996 154.689 13.4863C155.094 13.8672 155.65 14.0576 156.359 14.0576C157.842 14.0576 158.595 13.2783 158.618 11.7197V3.20314H161.264ZM163.426 16V3.20314H167.363C168.488 3.20314 169.493 3.45802 170.378 3.96778C171.268 4.47169 171.963 5.19239 172.461 6.12989C172.959 7.06153 173.208 8.12208 173.208 9.31153V9.9004C173.208 11.0898 172.962 12.1475 172.47 13.0732C171.983 13.999 171.295 14.7168 170.404 15.2266C169.514 15.7363 168.509 15.9941 167.39 16H163.426ZM166.062 5.33888V13.8818H167.337C168.368 13.8818 169.156 13.5449 169.701 12.8711C170.246 12.1973 170.524 11.2334 170.536 9.9795V9.30274C170.536 8.00196 170.266 7.01759 169.727 6.34962C169.188 5.67579 168.4 5.33888 167.363 5.33888H166.062ZM177.936 16H175.3V3.20314H177.936V16ZM190.9 9.89161C190.9 11.1514 190.678 12.2559 190.232 13.2051C189.787 14.1543 189.148 14.8867 188.316 15.4023C187.49 15.918 186.541 16.1758 185.469 16.1758C184.408 16.1758 183.462 15.9209 182.63 15.4111C181.798 14.9014 181.153 14.1748 180.696 13.2314C180.239 12.2822 180.008 11.1924 180.002 9.96192V9.32911C180.002 8.06934 180.227 6.96192 180.679 6.00684C181.136 5.04591 181.777 4.31056 182.603 3.80079C183.435 3.28517 184.385 3.02735 185.451 3.02735C186.517 3.02735 187.464 3.28517 188.29 3.80079C189.122 4.31056 189.764 5.04591 190.215 6.00684C190.672 6.96192 190.9 8.06641 190.9 9.32032V9.89161ZM188.228 9.31153C188.228 7.96973 187.988 6.9502 187.508 6.25294C187.027 5.55567 186.342 5.20704 185.451 5.20704C184.566 5.20704 183.884 5.55274 183.403 6.24415C182.923 6.9297 182.68 7.93751 182.674 9.26758V9.89161C182.674 11.1982 182.914 12.2119 183.394 12.9326C183.875 13.6533 184.566 14.0137 185.469 14.0137C186.353 14.0137 187.033 13.668 187.508 12.9766C187.982 12.2793 188.222 11.2656 188.228 9.93555V9.31153Z" fill="black"/>
</svg>
